simulation
nRows=69
nColumns=15
endheader
time  TH_x TH_y TH_z SC_y  SC_z  SC_x  AC_y  AC_z  AC_x  GH_y  GH_z  GH_yy  EL_x  PS_y
0.000000  0.000000  0.000000  0.000000  -24.573561  3.445128  10.177151  43.932761  2.232487  0.058300  20.458669  -1.916577  18.795296  20.457003  82.617647
0.029798  0.000000  0.000000  0.000000  -24.626223  3.436171  10.283442  43.980341  2.365962  0.043500  20.503051  -2.154540  18.888040  20.704173  82.467767
0.059596  0.000000  0.000000  0.000000  -24.640679  3.432562  10.311070  44.006681  2.413411  0.043409  20.526996  -2.247347  18.932435  20.782018  82.416467
0.089394  0.000000  0.000000  0.000000  -24.624784  3.435303  10.273730  44.017011  2.387954  0.057470  20.522406  -2.200897  18.926759  20.710579  82.435933
0.119192  0.000000  0.000000  0.000000  -24.586391  3.445398  10.187182  44.016758  2.301240  0.083626  20.481185  -2.021089  18.869290  20.509894  82.498349
0.148990  0.000000  0.000000  0.000000  -24.533354  3.463848  10.064553  44.011315  2.166747  0.121707  20.395235  -1.713821  18.758306  20.200004  82.575900
0.178788  0.000000  0.000000  0.000000  -24.473526  3.491656  9.919829  44.006092  1.997356  0.170919  20.256458  -1.284993  18.592085  19.800948  82.640770
0.208586  0.000000  0.000000  0.000000  -24.414762  3.529825  9.769020  44.006486  1.804561  0.229012  20.056759  -0.740504  18.368905  19.332767  82.665145
0.238384  0.000000  0.000000  0.000000  -24.364915  3.579357  9.625368  44.017732  1.601790  0.295736  19.788040  -0.086251  18.087044  18.815499  82.621207
0.268182  0.000000  0.000000  0.000000  -24.331839  3.641255  9.502498  44.044985  1.402216  0.370586  19.442203  0.671865  17.744780  18.269185  82.481142
0.297980  0.000000  0.000000  0.000000  -24.323387  3.716521  9.415653  44.093345  1.217882  0.451921  19.011152  1.527946  17.340391  17.713865  82.217135
0.327778  0.000000  0.000000  0.000000  -24.347000  3.806050  9.379016  44.167382  1.061038  0.538495  18.487427  2.476004  16.870828  17.169865  81.806796
0.357576  0.000000  0.000000  0.000000  -24.403373  3.908977  9.397680  44.264233  0.941994  0.628886  17.873944  3.508595  16.311440  16.662200  81.316097
0.387374  0.000000  0.000000  0.000000  -24.487714  4.023004  9.479540  44.375197  0.862409  0.714160  17.182060  4.617091  15.619995  16.219691  80.882897
0.417172  0.000000  0.000000  0.000000  -24.595073  4.145795  9.625006  44.491374  0.829012  0.790528  16.423378  5.792830  14.753756  15.871275  80.647145
0.446970  0.000000  0.000000  0.000000  -24.720499  4.275009  9.839771  44.603943  0.844893  0.850347  15.609502  7.027149  13.669981  15.645886  80.748787
0.476768  0.000000  0.000000  0.000000  -24.859281  4.408263  10.125626  44.704235  0.915812  0.888763  14.752107  8.311393  12.327171  15.571827  81.324914
0.506566  0.000000  0.000000  0.000000  -25.017955  4.541061  10.486666  44.794282  1.040407  0.902569  13.866283  9.637190  10.742311  15.647517  82.377639
0.536364  0.000000  0.000000  0.000000  -25.218940  4.665920  10.909603  44.891053  1.221734  0.905623  12.971949  10.996571  9.014974  15.829189  83.718494
0.566162  0.000000  0.000000  0.000000  -25.485857  4.775130  11.389598  45.012844  1.456269  0.906177  12.089383  12.381598  7.250968  16.069887  85.144619
0.595960  0.000000  0.000000  0.000000  -25.842324  4.860983  11.918582  45.178093  1.742681  0.914851  11.238866  13.784334  5.556100  16.322655  86.453152
0.625758  0.000000  0.000000  0.000000  -26.311917  4.915791  12.486034  45.405423  2.081182  0.944168  10.440650  15.196833  4.036078  16.540578  87.441454
0.655556  0.000000  0.000000  0.000000  -26.900392  4.939467  13.090770  45.700808  2.461674  0.997535  9.703804  16.608895  2.757253  16.692856  87.993585
0.685354  0.000000  0.000000  0.000000  -27.568732  4.951029  13.737283  46.037435  2.861283  1.067429  9.009288  18.004644  1.687052  16.789191  88.211507
0.715152  0.000000  0.000000  0.000000  -28.270994  4.972452  14.432146  46.383662  3.254255  1.143786  8.333719  19.367330  0.777611  16.845545  88.230876
0.744949  0.000000  0.000000  0.000000  -28.961237  5.025709  15.180025  46.707905  3.616367  1.217629  7.653713  20.680200  -0.018936  16.877882  88.187347
0.774747  0.000000  0.000000  0.000000  -29.593519  5.132775  15.990142  46.978756  3.920539  1.276317  6.945885  21.926503  -0.750454  16.902165  88.216576
0.804545  0.000000  0.000000  0.000000  -30.130361  5.309223  16.863626  47.171957  4.150757  1.314112  6.187919  23.093291  -1.454527  16.934164  88.432117
0.834343  0.000000  0.000000  0.000000  -30.573938  5.540653  17.801646  47.298984  4.312183  1.334881  5.362511  24.185446  -2.120560  16.988749  88.843969
0.864141  0.000000  0.000000  0.000000  -30.938030  5.803889  18.801934  47.381443  4.418511  1.347907  4.453822  25.213063  -2.723861  17.080527  89.431832
0.893939  0.000000  0.000000  0.000000  -31.236418  6.075757  19.864040  47.440873  4.481766  1.361617  3.446012  26.186241  -3.239737  17.224104  90.175400
0.923737  0.000000  0.000000  0.000000  -31.482881  6.333080  20.986086  47.498632  4.514461  1.386006  2.323243  27.115077  -3.643493  17.434085  91.054367
0.953535  0.000000  0.000000  0.000000  -31.691842  6.554106  22.168687  47.574546  4.525641  1.428271  1.075279  28.009176  -3.915227  17.722737  92.046352
0.983333  0.000000  0.000000  0.000000  -31.883553  6.730022  23.396669  47.673144  4.527115  1.489869  -0.257148  28.873669  -4.078614  18.081043  93.110096
1.013131  0.000000  0.000000  0.000000  -32.081378  6.858926  24.658593  47.791606  4.523471  1.560644  -1.606098  29.711293  -4.180592  18.488627  94.194262
1.042929  0.000000  0.000000  0.000000  -32.308713  6.938979  25.924722  47.926288  4.532921  1.642497  -2.903375  30.524766  -4.268316  18.925004  95.247418
1.072727  0.000000  0.000000  0.000000  -32.588951  6.968341  27.183700  48.074773  4.560221  1.724701  -4.080787  31.316805  -4.388942  19.369691  96.218133
1.102525  0.000000  0.000000  0.000000  -32.944239  6.945586  28.413426  48.234427  4.618064  1.804037  -5.073426  32.089800  -4.587195  19.802786  97.057358
1.132323  0.000000  0.000000  0.000000  -33.371312  6.877684  29.605582  48.405666  4.705356  1.878933  -5.883441  32.839463  -4.858218  20.216258  97.764635
1.162121  0.000000  0.000000  0.000000  -33.843176  6.779443  30.755790  48.590780  4.814638  1.955618  -6.575585  33.555273  -5.150865  20.613157  98.384869
1.191919  0.000000  0.000000  0.000000  -34.331927  6.665973  31.862733  48.791781  4.935986  2.038881  -7.217008  34.226470  -5.412220  20.996960  98.964702
1.221717  0.000000  0.000000  0.000000  -34.809665  6.552383  32.926064  49.010168  5.058709  2.133107  -7.874859  34.842294  -5.589362  21.371141  99.550779
1.251515  0.000000  0.000000  0.000000  -35.248648  6.453654  33.942805  49.246664  5.174109  2.244526  -8.615581  35.392041  -5.629919  21.739101  100.189221
1.281313  0.000000  0.000000  0.000000  -35.632212  6.375975  34.916723  49.496486  5.269980  2.367060  -9.457135  35.868875  -5.518731  22.099119  100.890625
1.311111  0.000000  0.000000  0.000000  -35.961683  6.311252  35.827997  49.744155  5.355021  2.496665  -10.338727  36.272238  -5.301095  22.441155  101.607871
1.340909  0.000000  0.000000  0.000000  -36.240036  6.250083  36.670319  49.973662  5.428678  2.618629  -11.192350  36.602150  -5.027845  22.754406  102.288551
1.370707  0.000000  0.000000  0.000000  -36.470247  6.183064  37.432390  50.168324  5.494841  2.720942  -11.949993  36.858630  -4.749818  23.028069  102.880257
1.400505  0.000000  0.000000  0.000000  -36.655291  6.100798  38.100397  50.311081  5.559788  2.792821  -12.543673  37.041697  -4.517830  23.251345  103.330604
1.430303  0.000000  0.000000  0.000000  -36.797556  5.999001  38.668857  50.393611  5.621337  2.823766  -12.933123  37.152768  -4.360473  23.417304  103.613825
1.460101  0.000000  0.000000  0.000000  -36.897716  5.888355  39.122675  50.431595  5.677825  2.826588  -13.159190  37.197342  -4.241313  23.530331  103.782032
1.489899  0.000000  0.000000  0.000000  -36.956131  5.782263  39.446263  50.445759  5.726170  2.817887  -13.277473  37.181664  -4.112086  23.596872  103.901506
1.519697  0.000000  0.000000  0.000000  -36.973162  5.694129  39.625849  50.457461  5.761499  2.813297  -13.343575  37.111975  -3.924527  23.623374  104.038529
1.549495  0.000000  0.000000  0.000000  -36.949171  5.637357  39.648177  50.488472  5.778289  2.828209  -13.413095  36.994521  -3.630371  23.616283  104.259382
1.579293  0.000000  0.000000  0.000000  -36.884808  5.623083  39.502519  50.555963  5.770192  2.874842  -13.530879  36.833068  -3.193460  23.581878  104.615328
1.609091  0.000000  0.000000  0.000000  -36.782317  5.649990  39.185397  50.649845  5.732823  2.951461  -13.682650  36.617779  -2.644175  23.525535  105.075081
1.638889  0.000000  0.000000  0.000000  -36.644486  5.712502  38.701896  50.750642  5.658138  3.047490  -13.833927  36.334168  -2.035639  23.452319  105.579140
1.668687  0.000000  0.000000  0.000000  -36.474103  5.805039  38.055863  50.838583  5.539455  3.152761  -13.950211  35.967744  -1.420995  23.367294  106.067981
1.698485  0.000000  0.000000  0.000000  -36.273959  5.922023  37.254833  50.894545  5.367492  3.254245  -13.997003  35.504016  -0.853384  23.275525  106.482081
1.728283  0.000000  0.000000  0.000000  -36.046073  6.057243  36.297363  50.900659  5.141766  3.344262  -13.939750  34.929565  -0.383107  23.181105  106.765274
1.758081  0.000000  0.000000  0.000000  -35.784094  6.197607  35.198590  50.846690  4.869559  3.406880  -13.743325  34.242669  -0.029427  23.077522  106.898063
1.787879  0.000000  0.000000  0.000000  -35.476514  6.325788  33.967773  50.725263  4.575099  3.432092  -13.372245  33.448804  0.207497  22.951740  106.883520
1.817677  0.000000  0.000000  0.000000  -35.111749  6.424393  32.619859  50.528062  4.277909  3.407536  -12.791019  32.553554  0.327783  22.790624  106.725047
1.847475  0.000000  0.000000  0.000000  -34.678217  6.476034  31.174648  50.244860  3.993520  3.319176  -11.964161  31.562502  0.331551  22.581040  106.426046
1.877273  0.000000  0.000000  0.000000  -34.164790  6.463916  29.651142  49.863571  3.737690  3.155473  -10.858236  30.481717  0.219984  22.310357  105.989827
1.907071  0.000000  0.000000  0.000000  -33.572211  6.386839  28.071139  49.387152  3.512166  2.922078  -9.493459  29.329967  0.021991  21.979037  105.417239
1.936869  0.000000  0.000000  0.000000  -32.913940  6.260302  26.461586  48.837368  3.301759  2.640485  -7.947503  28.139625  -0.203815  21.601568  104.706504
1.966667  0.000000  0.000000  0.000000  -32.204063  6.100623  24.849957  48.238522  3.089990  2.332030  -6.300863  26.943729  -0.397366  21.193128  103.855711
1.996465  0.000000  0.000000  0.000000  -31.456661  5.924122  23.259299  47.616514  2.863307  2.020196  -4.634032  25.775318  -0.498595  20.768892  102.862951
2.026263  0.000000  0.000000  0.000000  -30.685857  5.747051  21.715202  46.999396  2.605995  1.725731  -3.027288  24.667230  -0.447720  20.344023  101.726678
